# AST/ASF file generated using VICON BodyLanguage
# -----------------------------------------------
:version 1.10
:name VICON
:units
  mass 1.0
  length 0.45
  angle deg
:documentation
   .ast/.asf automatically generated from VICON data using
   VICON BodyBuilder and BodyLanguage model FoxedUp or BRILLIANT.MOD
:root
   order TX TY TZ RX RY RZ
   axis XYZ
   position 0 0 0  
   orientation 0 0 0 
:bonedata
  begin
     id 1 
     name lhipjoint
     direction 0.623529 -0.717805 0.309788 
     length 2.23224 
     axis 0 0 0  XYZ
  end
  begin
     id 2 
     name lfemur
     direction 0.34202 -0.939693 0  
     length 7.11402  
     axis 0 0 20  XYZ
    dof rx ry rz
    limits (-160.0 20.0)
           (-70.0 70.0)
           (-60.0 70.0)
  end
  begin
     id 3 
     name ltibia
     direction 0.34202 -0.939693 0   
     length 6.78496   
     axis 0 0 20   XYZ
    dof rx
    limits (-10.0 170.0)
  end
  begin
     id 4 
     name lfoot
     direction 0.125078 -0.343648 0.930732   
     length 1.84054   
     axis -90 7.62852e-016 20   XYZ
    dof rx rz
    limits (-45.0 90.0)
           (-70.0 20.0)
  end
  begin
     id 5 
     name ltoes
     direction 1.53565e-011 -4.21893e-011 1   
     length 0.916474   
     axis -90 7.62852e-016 20   XYZ
    dof rx
    limits (-90.0 20.0)
  end
  begin
     id 6 
     name rhipjoint
     direction -0.564688 -0.757748 0.327026   
     length 2.11457  
     axis 0 0 0  XYZ 
  end
  begin
     id 7 
     name rfemur
     direction -0.34202 -0.939693 0   
     length 7.14609   
     axis 0 0 -20   XYZ
    dof rx ry rz
    limits (-160.0 20.0)
           (-70.0 70.0)
           (-70.0 60.0)
  end
  begin
     id 8 
     name rtibia
     direction -0.34202 -0.939693 0   
     length 6.78101   
     axis 0 0 -20   XYZ
    dof rx
    limits (-10.0 170.0)
 end
 begin
     id 9 
     name rfoot
     direction -0.0992671 -0.272734 0.956955   
     length 1.96168  
     axis -90 -7.62852e-016 -20   XYZ
    dof rx rz
    limits (-45.0 90.0)
           (-20.0 70.0)
  end
  begin
     id 10 
     name rtoes
     direction -1.5356e-011 -4.21891e-011 1   
     length 0.982933   
     axis -90 -7.62852e-016 -20   XYZ
    dof rx
    limits (-90.0 20.0)
  end
  begin
     id 11 
     name lowerback
     direction -0.00596953 0.998668 0.0512524   
     length 1.87557   
     axis 0 0 0   XYZ
    dof rx ry rz
    limits (-20.0 45.0)
           (-30.0 30.0)
           (-30.0 30.0)
  end
  begin
     id 12 
     name upperback
     direction 0.00584879 0.999652 0.0257308   
     length 1.87883   
     axis 0 0 0   XYZ
    dof rx ry rz
    limits (-20.0 45.0)
           (-30.0 30.0)
           (-30.0 30.0)
  end
  begin
     id 13 
     name thorax
     direction 0.010104 0.999947 0.00178881   
     length 1.87779   
     axis 0 0 0   XYZ
    dof rx ry rz
    limits (-20.0 45.0)
           (-30.0 30.0)
           (-30.0 30.0)
  end
  begin
     id 14 
     name lowerneck
     direction 0.0120771 0.995934 -0.0892773   
     length 1.40897   
     axis 0 0 0   XYZ
    dof rx ry rz
    limits (-20.0 45.0)
           (-30.0 30.0)
           (-30.0 30.0)
  end
  begin
     id 15 
     name upperneck
     direction -0.030568 0.999465 -0.0116366   
     length 1.38661   
     axis 0 0 0   XYZ
    dof rx ry rz
    limits (-20.0 45.0)
           (-30.0 30.0)
           (-30.0 30.0)
  end
  begin
     id 16
     name head
     direction -0.0170715 0.999854 -0.00104426  
     length 1.47052  
     axis 0 0 0   XYZ
    dof rx ry rz
    limits (-20.0 45.0)
           (-30.0 30.0)
           (-30.0 30.0)
  end
  begin
     id 17 
     name lclavicle
     direction 0.977763 0.206143 0.038532  
     length 3.02424  
     axis 0 0 0   XYZ
    dof ry rz
    limits (-20.0 10.0)
           (0.0 20.0)
  end
  begin
     id 18 
     name lhumerus
     direction 1 -4.48965e-011 -2.62654e-027   
     length 4.68382   
     axis 180 -30 -90   XYZ
    dof rx ry rz
    limits (-60.0 90.0)
           (-90.0 90.0)
           (-90.0 90.0)
  end
  begin
     id 19
     name lradius
     direction 1 -4.48973e-011 -1.54954e-027   
     length 2.98124   
     axis 180 -30 -90   XYZ
    dof rx
    limits (-10.0 170.0)
  end
  begin
     id 20
     name lwrist
     direction 1 -4.48959e-011 7.20928e-028   
     length 1.49062   
     axis -5.52449e-016 90 90   XYZ
    dof ry
    limits (-180.0 0.0)
 end
  begin
     id 21 
     name lhand
     direction 1 -4.48971e-011 1.44186e-027   
     length 0.707595   
     axis -9.20027e-016 90 90   XYZ
    dof rx rz
    limits (-90.0 90.0)
           (-45.0 45.0)
  end
  begin
     id 22 
     name lfingers
     direction 1 -4.48985e-011 2.88371e-027   
     length 0.570481   
     axis -1.84005e-015 90 90   XYZ
    dof rx
    limits (0.0 90.0)
  end
  begin
     id 23
     name lthumb
     direction 0.707107 -6.34929e-011 0.707107   
     length 0.819101   
     axis -90 45 2.85299e-015   XYZ
    dof rx rz
    limits (-45.0 45.0)
           (-45.0 45.0)
  end
  begin
     id 24 
     name rclavicle
     direction -0.958661 0.284411 -0.00895327   
     length 3.11921  
     axis 0 0 0   XYZ 
    dof ry rz
    limits (-10.0 20.0)
           (-20.0 0.0)
  end
  begin
     id 25 
     name rhumerus
     direction -1 -4.48963e-011 -4.22193e-027  
     length 4.75876   
     axis 180 30 90   XYZ
    dof rx ry rz
    limits (-90.0 60.0)
           (-90.0 90.0)
           (-90.0 90.0)
  end
  begin
     id 26 
     name rradius
     direction -1 -4.48968e-011 -1.07616e-027   
     length 2.93293   
     axis 180 30 90   XYZ
    dof rx
    limits (-10.0 170.0)
  end
  begin
     id 27 
     name rwrist
     direction -1 -4.48965e-011 7.20928e-028   
     length 1.46647   
     axis -5.52449e-016 -90 -90   XYZ
    dof ry
    limits (-180.0 0.0)
  end
  begin
     id 28
     name rhand
     direction -1 -4.48971e-011 1.44186e-027   
     length 0.831748   
     axis -9.20027e-016 -90 -90   XYZ
    dof rx rz
    limits (-90.0 90.0)
           (-45.0 45.0)
  end
  begin
     id 29
     name rfingers
     direction -1 -4.48961e-011 2.88371e-027   
     length 0.670577   
     axis -1.84005e-015 -90 -90   XYZ
    dof rx
    limits (0.0 90.0)
  end
  begin
     id 30
     name rthumb
     direction -0.707107 -6.34929e-011 0.707107   
     length 0.962818   
     axis -90 -45 -2.85299e-015   XYZ
    dof rx rz
    limits (-45.0 45.0)
           (-45.0 45.0)
  end
:hierarchy
  begin
    root lhipjoint rhipjoint lowerback
    lhipjoint lfemur
    lfemur ltibia
    ltibia lfoot
    lfoot ltoes
    rhipjoint rfemur
    rfemur rtibia
    rtibia rfoot
    rfoot rtoes
    lowerback upperback
    upperback thorax
    thorax lowerneck lclavicle rclavicle
    lowerneck upperneck
    upperneck head
    lclavicle lhumerus
    lhumerus lradius
    lradius lwrist
    lwrist lhand lthumb
    lhand lfingers
    rclavicle rhumerus
    rhumerus rradius
    rradius rwrist
    rwrist rhand rthumb
    rhand rfingers
  end

#!OML:ASF E:\id_vita\Project 1\Capture day 1\Session 1\Female.ASF
:FULLY-SPECIFIED
:DEGREES
350
root -21.4208 12.9317 -5.04582 -153.138 -78.9303 -137.106
lowerback 20.0608 1.43128 -3.21904
upperback 3.6693 0.817906 -1.54736
thorax -7.26497 0.351726 -0.0351462
lowerneck -36.1441 3.65909 6.43154
upperneck -14.3478 -0.263597 -10.9987
head 0.701019 -2.06623 -4.73799
rclavicle -1.19271e-013 -2.65874e-014
rhumerus 44.3144 18.9815 -96.636
rradius 62.882
rwrist -24.7297
rhand -12.3734 -0.92545
rfingers 7.12502
rthumb 13.6972 -30.4547
lclavicle -1.19271e-013 -2.65874e-014
lhumerus 77.8247 -10.6213 100.286
lradius 19.6032
lwrist -9.36459
lhand 5.43865 39.2479
lfingers 7.12502
lthumb 30.7883 66.6895
rfemur -113.678 -0.271919 44.7399
rtibia 74.5229
rfoot -25.8379 -1.6564
rtoes -19.9567
lfemur -122.088 14.366 -22.9307
ltibia 78.4101
lfoot -23.1319 -0.752009
ltoes -5.75089
351
root -21.4 12.9902 -5.06158 -152.867 -79.3077 -137.596
lowerback 20.3128 1.33636 -3.23622
upperback 3.65597 0.685771 -1.4775
thorax -7.4119 0.291446 0.0803358
lowerneck -36.0625 3.51342 6.15723
upperneck -14.3658 -0.333787 -10.7381
head 0.673693 -2.06971 -4.60967
rclavicle -2.22639e-014 -6.15736e-014
rhumerus 44.3314 19.0525 -96.3319
rradius 62.6358
rwrist -24.8726
rhand -12.6464 -1.07228
rfingers 7.12502
rthumb 13.434 -30.6191
lclavicle -2.22639e-014 -6.15736e-014
lhumerus 77.6446 -10.5138 101.055
lradius 19.3408
lwrist -10.2828
lhand 5.54573 39.2999
lfingers 7.12502
lthumb 30.8904 66.7222
rfemur -113.29 -0.515424 44.386
rtibia 73.9166
rfoot -25.528 -1.68681
rtoes -19.5414
lfemur -121.476 14.0406 -22.8171
ltibia 77.674
lfoot -22.8189 -0.802705
ltoes -5.22805
352
root -21.3809 13.0305 -5.07764 -153.263 -79.3918 -137.101
lowerback 19.9216 1.33972 -3.27154
upperback 3.63368 0.711518 -1.42519
thorax -7.22877 0.306153 0.155483
lowerneck -36.145 3.51719 6.16953
upperneck -14.2195 -0.319731 -10.8173
head 0.731527 -2.06558 -4.63917
rclavicle -5.725e-014 -4.01545e-014
rhumerus 44.2294 19.0759 -96.1553
rradius 62.5184
rwrist -24.7641
rhand -12.8698 -0.794275
rfingers 7.12502
rthumb 13.2187 -30.3552
lclavicle -5.725e-014 -4.01545e-014
lhumerus 77.3997 -10.4399 101.506
lradius 19.3171
lwrist -10.8048
lhand 5.32085 39.6358
lfingers 7.12502
lthumb 30.676 67.0986
rfemur -113.068 -0.331603 44.1867
rtibia 73.298
rfoot -25.2838 -1.68729
rtoes -19.5339
lfemur -121.274 14.0595 -22.6814
ltibia 76.9951
lfoot -22.5511 -0.62594
ltoes -5.34576
353
root -21.3633 13.0696 -5.09304 -153.77 -79.2738 -136.526
lowerback 19.5122 1.42971 -3.3933
upperback 3.59804 0.828184 -1.41454
thorax -7.05341 0.365477 0.212031
lowerneck -36.0795 3.5075 6.26394
upperneck -14.1615 -0.353949 -10.9302
head 0.744848 -2.08591 -4.69539
rclavicle 1.03368e-014 4.91992e-015
rhumerus 43.9011 18.9856 -96.2049
rradius 62.3737
rwrist -24.409
rhand -12.7047 -0.406179
rfingers 7.12502
rthumb 13.3778 -29.9567
lclavicle 1.03368e-014 4.91992e-015
lhumerus 77.1031 -10.3859 102.007
lradius 19.2281
lwrist -11.2166
lhand 5.73366 39.7948
lfingers 7.12502
lthumb 31.0695 67.183
rfemur -112.723 0.0371093 43.7745
rtibia 72.656
rfoot -24.9537 -1.80896
rtoes -19.6644
lfemur -121.042 14.2565 -22.4881
ltibia 76.3303
lfoot -22.1647 -0.520999
ltoes -5.48816
354
root -21.3473 13.1419 -5.11063 -153.598 -79.5617 -137.175
lowerback 20.0052 1.43712 -3.60234
upperback 3.60924 0.775387 -1.30777
thorax -7.30773 0.346701 0.452025
lowerneck -35.5119 3.3546 6.14711
upperneck -14.5776 -0.507999 -10.7468
head 0.541926 -2.12958 -4.6168
rclavicle 2.3059e-014 3.94091e-014
rhumerus 44.5429 19.2598 -95.2782
rradius 60.8929
rwrist -24.5973
rhand -12.9562 0.0292958
rfingers 7.12502
rthumb 13.1354 -29.537
lclavicle 2.3059e-014 3.94091e-014
lhumerus 76.7884 -10.3252 102.551
lradius 19.0515
lwrist -11.4233
lhand 6.44941 39.5556
lfingers 7.12502
lthumb 31.7515 66.8111
rfemur -111.979 -0.216712 43.1287
rtibia 72.0115
rfoot -24.5217 -2.05192
rtoes -19.2368
lfemur -120.056 14.0037 -22.198
ltibia 75.5781
lfoot -21.8806 -0.579619
ltoes -5.32544
355
root -21.3218 13.1918 -5.12931 -153.881 -79.4 -136.927
lowerback 19.7201 1.55099 -3.97449
upperback 3.63206 0.871193 -1.21145
thorax -7.14062 0.399973 0.747059
lowerneck -35.8771 3.38697 6.05966
upperneck -14.2544 -0.419981 -10.7094
head 0.684461 -2.0891 -4.58911
rclavicle -8.74653e-014 -7.0171e-014
rhumerus 43.7919 19.2313 -95.763
rradius 61.5907
rwrist -23.6714
rhand -12.163 -0.749821
rfingers 7.12502
rthumb 13.9 -30.2653
lclavicle -8.74653e-014 -7.0171e-014
lhumerus 76.6264 -10.1388 103.094
lradius 18.7705
lwrist -11.743
lhand 5.51938 39.5806
lfingers 7.12502
lthumb 30.8652 67.0076
rfemur -111.581 0.0695243 42.9612
rtibia 71.3781
rfoot -24.1926 -1.87785
rtoes -18.7668
lfemur -119.724 14.2538 -22.1043
ltibia 74.9208
lfoot -21.4135 -0.540617
ltoes -6.70894
356
root -21.3028 13.2386 -5.14408 -153.443 -79.3988 -137.547
lowerback 19.5892 1.57584 -4.17177
upperback 3.64639 0.8668 -1.25734
thorax -7.05696 0.400279 0.812785
lowerneck -35.4723 3.41867 6.39578
upperneck -14.5769 -0.525506 -10.9733
head 0.54387 -2.1602 -4.73557
rclavicle 1.03368e-014 1.00386e-014
rhumerus 44.8206 19.8245 -94.1252
rradius 60.7168
rwrist -24.8195
rhand -12.8394 -1.22213
rfingers 7.12502
rthumb 13.248 -30.7811
lclavicle 1.03368e-014 1.00386e-014
lhumerus 76.3373 -10.0511 103.741
lradius 18.4662
lwrist -12.4666
lhand 5.47827 39.5955
lfingers 7.12502
lthumb 30.826 67.03
rfemur -111.131 0.0825666 42.4968
rtibia 70.7578
rfoot -23.8482 -1.76948
rtoes -18.7263
lfemur -119.166 14.2112 -22.0006
ltibia 74.2407
lfoot -21.137 -0.568462
ltoes -6.22918
357
root -21.2853 13.2857 -5.16222 -153.09 -79.4641 -138.085
lowerback 19.5577 1.52578 -4.19791
upperback 3.65326 0.783354 -1.42322
thorax -7.02701 0.35824 0.670611
lowerneck -35.2271 3.4741 6.76894
upperneck -14.7382 -0.590731 -11.0303
head 0.465562 -2.20413 -4.81766
rclavicle 1.82882e-014 -3.07122e-014
rhumerus 44.7462 20.0898 -93.8764
rradius 60.5942
rwrist -25.0447
rhand -13.3559 -1.39596
rfingers 7.12502
rthumb 12.7501 -30.9867
lclavicle 1.82882e-014 -3.07122e-014
lhumerus 76.1308 -9.9742 104.209
lradius 18.1125
lwrist -13.3444
lhand 5.61031 39.7293
lfingers 7.12502
lthumb 30.9519 67.1399
rfemur -110.665 0.133232 41.8034
rtibia 70.151
rfoot -23.1397 -1.35896
rtoes -17.0039
lfemur -118.597 14.1524 -21.8943
ltibia 73.569
lfoot -20.7064 -0.678672
ltoes -6.00928
358
root -21.266 13.3353 -5.18189 -153.598 -79.4876 -137.844
lowerback 19.5559 1.51436 -4.25969
upperback 3.71937 0.751386 -1.45727
thorax -6.95334 0.340437 0.678053
lowerneck -35.3336 3.537 6.86393
upperneck -14.6712 -0.539613 -10.9359
head 0.497968 -2.18126 -4.79863
rclavicle 6.36111e-014 7.0171e-014
rhumerus 44.5913 20.4996 -93.5775
rradius 60.7954
rwrist -25.1703
rhand -13.804 -1.74435
rfingers 7.12502
rthumb 12.3181 -31.3615
lclavicle 6.36111e-014 7.0171e-014
lhumerus 75.9814 -9.75484 104.815
lradius 17.7527
lwrist -14.1892
lhand 5.23227 39.6624
lfingers 7.12502
lthumb 30.5915 67.1409
rfemur -110.075 0.237171 41.3788
rtibia 69.5309
rfoot -22.1612 -0.801599
rtoes -14.0963
lfemur -117.949 14.2348 -21.6453
ltibia 72.875
lfoot -20.2366 -0.765226
ltoes -5.85588
